<svg xmlns="http://www.w3.org/2000/svg" viewBox="-40 -30 320 450" width="320" height="450"><defs><clipPath id="robe-clip-afrasiab"><path d="M90 104 Q82 150 96 190 Q86 280 76 350 Q122 362 168 348 Q152 270 146 190 Q158 140 152 104 Q122 94 90 104 Z"/></clipPath></defs><path d="M92 104 Q60 200 52 330 Q80 344 100 330 Q96 220 112 110 Z" fill="#2B1B12" stroke="#2B1B12" stroke-width="1.6" stroke-linejoin="round" stroke-linecap="round" /><path d="M94 108 Q80 150 82 196 Q84 214 94 218 Q100 206 100 192 Q100 150 106 120 Z" fill="#5A2E5E" stroke="#2B1B12" stroke-width="1.6" stroke-linejoin="round" stroke-linecap="round" /><circle cx="90" cy="218" r="7" fill="#F3D9BC" stroke="#2B1B12" stroke-width="1.4"/><path d="M98 340 L100 400 L120 401 Q130 400 133 394 Q136 404 128 409 L96 409 Q92 404 94 398 L92 340 Z" fill="#6B4626" stroke="#2B1B12" stroke-width="1.6" stroke-linejoin="round" stroke-linecap="round" /><path d="M128 340 L130 400 L150 401 Q160 400 163 394 Q166 404 158 409 L126 409 Q122 404 124 398 L120 340 Z" fill="#6B4626" stroke="#2B1B12" stroke-width="1.6" stroke-linejoin="round" stroke-linecap="round" /><path d="M124 392 L134 392 M96 392 L106 392" stroke="#C99A2E" stroke-width="2"/><path d="M90 104 Q82 150 96 190 Q86 280 76 350 Q122 362 168 348 Q152 270 146 190 Q158 140 152 104 Q122 94 90 104 Z" fill="#5A2E5E" stroke="#2B1B12" stroke-width="1.6" stroke-linejoin="round" stroke-linecap="round" /><g clip-path="url(#robe-clip-afrasiab)"><circle cx="92" cy="124" r="2.6" fill="#8E6A1C"/><circle cx="114" cy="124" r="2.6" fill="#8E6A1C"/><circle cx="136" cy="124" r="2.6" fill="#8E6A1C"/><circle cx="158" cy="124" r="2.6" fill="#8E6A1C"/><circle cx="103" cy="146" r="2.6" fill="#8E6A1C"/><circle cx="125" cy="146" r="2.6" fill="#8E6A1C"/><circle cx="147" cy="146" r="2.6" fill="#8E6A1C"/><circle cx="92" cy="168" r="2.6" fill="#8E6A1C"/><circle cx="114" cy="168" r="2.6" fill="#8E6A1C"/><circle cx="136" cy="168" r="2.6" fill="#8E6A1C"/><circle cx="158" cy="168" r="2.6" fill="#8E6A1C"/><circle cx="103" cy="190" r="2.6" fill="#8E6A1C"/><circle cx="125" cy="190" r="2.6" fill="#8E6A1C"/><circle cx="147" cy="190" r="2.6" fill="#8E6A1C"/><circle cx="92" cy="212" r="2.6" fill="#8E6A1C"/><circle cx="114" cy="212" r="2.6" fill="#8E6A1C"/><circle cx="136" cy="212" r="2.6" fill="#8E6A1C"/><circle cx="158" cy="212" r="2.6" fill="#8E6A1C"/><circle cx="103" cy="234" r="2.6" fill="#8E6A1C"/><circle cx="125" cy="234" r="2.6" fill="#8E6A1C"/><circle cx="147" cy="234" r="2.6" fill="#8E6A1C"/><circle cx="92" cy="256" r="2.6" fill="#8E6A1C"/><circle cx="114" cy="256" r="2.6" fill="#8E6A1C"/><circle cx="136" cy="256" r="2.6" fill="#8E6A1C"/><circle cx="158" cy="256" r="2.6" fill="#8E6A1C"/><circle cx="103" cy="278" r="2.6" fill="#8E6A1C"/><circle cx="125" cy="278" r="2.6" fill="#8E6A1C"/><circle cx="147" cy="278" r="2.6" fill="#8E6A1C"/><circle cx="92" cy="300" r="2.6" fill="#8E6A1C"/><circle cx="114" cy="300" r="2.6" fill="#8E6A1C"/><circle cx="136" cy="300" r="2.6" fill="#8E6A1C"/><circle cx="158" cy="300" r="2.6" fill="#8E6A1C"/><circle cx="103" cy="322" r="2.6" fill="#8E6A1C"/><circle cx="125" cy="322" r="2.6" fill="#8E6A1C"/><circle cx="147" cy="322" r="2.6" fill="#8E6A1C"/></g><path d="M132 344 Q150 342 168 348 Q150 356 132 354 Z" fill="#AEB7BF" stroke="#2B1B12" stroke-width="1.6" stroke-linejoin="round" stroke-linecap="round" /><path d="M124 100 Q146 130 140 190 Q138 270 134 354" fill="none" stroke="#C99A2E" stroke-width="4"/><path d="M124 100 Q146 130 140 190 Q138 270 134 354" fill="none" stroke="#2B1B12" stroke-width="1"/><path d="M108 100 Q122 112 136 100 Q130 94 122 96 Q114 94 108 100 Z" fill="#C99A2E" stroke="#2B1B12" stroke-width="1.6" stroke-linejoin="round" stroke-linecap="round" /><path d="M96 120 Q122 132 148 120 L146 184 Q122 194 98 184 Z" fill="#6F7A84" stroke="#2B1B12" stroke-width="1.6" stroke-linejoin="round" stroke-linecap="round" /><path d="M100 140 L144 140 M100 156 L144 156 M100 172 L144 172" stroke="#8E6A1C" stroke-width="1.3"/><path d="M94 182 Q122 192 148 182 L148 196 Q122 206 94 196 Z" fill="#C99A2E" stroke="#2B1B12" stroke-width="1.6" stroke-linejoin="round" stroke-linecap="round" /><path d="M136 196 Q140 230 132 262 L142 262 Q150 230 146 196 Z" fill="#C99A2E" stroke="#2B1B12" stroke-width="1.6" stroke-linejoin="round" stroke-linecap="round" /><circle cx="140" cy="191" r="5" fill="#C99A2E" stroke="#2B1B12" stroke-width="1.2"/><path d="M100 66 Q92 96 100 116 Q110 118 112 104 Q106 88 110 70 Z" fill="#1C120D" stroke="#2B1B12" stroke-width="1.6" stroke-linejoin="round" stroke-linecap="round" /><rect x="114" y="82" width="15" height="22" fill="#E2BC96" stroke="#2B1B12" stroke-width="1.4"/><ellipse cx="124" cy="64" rx="20" ry="24" fill="#F3D9BC" stroke="#2B1B12" stroke-width="1.6"/><path d="M106 58 Q104 44 118 40 Q132 38 142 50 Q130 46 120 50 Q112 54 110 66 Z" fill="#1C120D"/><ellipse cx="112" cy="66" rx="4" ry="6" fill="#E2BC96" stroke="#2B1B12" stroke-width="1.2"/><path d="M126 60 Q131 56 137 60 Q131 63 126 60 Z" fill="#FBF7EC" stroke="#2B1B12" stroke-width="1.2"/><circle cx="132.5" cy="59.8" r="2" fill="#2B1B12"/><path d="M124 53 Q131 48 139 52" fill="none" stroke="#2B1B12" stroke-width="1.6"/><path d="M142 58 L146 70 L141 72" fill="none" stroke="#2B1B12" stroke-width="1.3"/><path d="M134 79 Q138 81 141 79" fill="none" stroke="#C2412D" stroke-width="2.2" stroke-linecap="round"/><path d="M108 70 Q112 96 132 116 Q140 100 144 82 Q138 86 130 84 Q122 92 114 84 Q110 76 110 70 Z" fill="#1C120D" stroke="#2B1B12" stroke-width="1.6" stroke-linejoin="round" stroke-linecap="round" /><path d="M128 76 Q138 72 148 72 Q140 80 128 76 Z" fill="#1C120D" stroke="#2B1B12" stroke-width="1.6" stroke-linejoin="round" stroke-linecap="round" /><path d="M104 44 Q106 6 128 -6 Q140 10 142 44 Z" fill="#8E1F2A" stroke="#2B1B12" stroke-width="1.6" stroke-linejoin="round" stroke-linecap="round" /><path d="M98 52 Q96 38 122 36 Q148 38 148 52 Q122 46 98 52 Z" fill="#9C6B3E" stroke="#2B1B12" stroke-width="1.6" stroke-linejoin="round" stroke-linecap="round" /><path d="M104 46 Q122 42 144 46" fill="none" stroke="#6B4626" stroke-width="1.4" stroke-dasharray="2 3"/><circle cx="128" cy="-6" r="4" fill="#C99A2E" stroke="#2B1B12" stroke-width="1.2"/><path d="M146 106 Q168 128 176 156 Q182 172 192 168 Q196 158 190 150 Q176 120 156 104 Z" fill="#5A2E5E" stroke="#2B1B12" stroke-width="1.6" stroke-linejoin="round" stroke-linecap="round" /><circle cx="194" cy="152" r="0" /><circle cx="196" cy="160" r="7.5" fill="#F3D9BC" stroke="#2B1B12" stroke-width="1.4"/><path d="M193 164 L236 350 L240 346 L200 162 Z" fill="#AEB7BF" stroke="#2B1B12" stroke-width="1.6" stroke-linejoin="round" stroke-linecap="round" /><path d="M182 162 L210 154 L212 160 L184 168 Z" fill="#C99A2E" stroke="#2B1B12" stroke-width="1.6" stroke-linejoin="round" stroke-linecap="round" /><path d="M194 156 L190 138 L196 136 L200 154 Z" fill="#8E1F2A" stroke="#2B1B12" stroke-width="1.6" stroke-linejoin="round" stroke-linecap="round" /><circle cx="192" cy="135" r="4" fill="#C99A2E" stroke="#2B1B12" stroke-width="1.2"/></svg>
