<svg xmlns="http://www.w3.org/2000/svg" viewBox="0 0 1920 864" width="1920" height="864"><defs><linearGradient id="night" x1="0" y1="0" x2="0" y2="1"><stop offset="0" stop-color="#0E1A3F"/><stop offset="1" stop-color="#1F3C88"/></linearGradient><radialGradient id="glow" cx=".5" cy=".75" r=".6"><stop offset="0" stop-color="#F7A21B" stop-opacity=".85"/><stop offset="1" stop-color="#D9381E" stop-opacity="0"/></radialGradient></defs><rect width="1920" height="560" fill="url(#night)"/><path d="M628.8 81.3 L630.3 85.4 L634.4 86.9 L630.3 88.4 L628.8 92.5 L627.3 88.4 L623.2 86.9 L627.3 85.4 Z" fill="#E8C65A"/><path d="M156.2 278.8 L157.4 282.1 L160.6 283.3 L157.4 284.5 L156.2 287.8 L155.0 284.5 L151.7 283.3 L155.0 282.1 Z" fill="#E8C65A"/><path d="M129.0 265.6 L129.9 267.9 L132.2 268.8 L129.9 269.6 L129.0 271.9 L128.2 269.6 L125.9 268.8 L128.2 267.9 Z" fill="#E8C65A"/><path d="M835.3 42.3 L836.2 44.7 L838.6 45.6 L836.2 46.5 L835.3 49.0 L834.4 46.5 L831.9 45.6 L834.4 44.7 Z" fill="#E8C65A"/><path d="M818.1 428.2 L819.0 430.8 L821.6 431.7 L819.0 432.6 L818.1 435.2 L817.2 432.6 L814.6 431.7 L817.2 430.8 Z" fill="#E8C65A"/><path d="M439.7 323.2 L441.5 328.2 L446.5 330.0 L441.5 331.8 L439.7 336.8 L437.9 331.8 L432.9 330.0 L437.9 328.2 Z" fill="#E8C65A"/><path d="M1105.0 205.4 L1106.8 210.5 L1111.9 212.3 L1106.8 214.2 L1105.0 219.2 L1103.1 214.2 L1098.0 212.3 L1103.1 210.5 Z" fill="#E8C65A"/><path d="M107.6 443.7 L108.7 446.7 L111.7 447.8 L108.7 448.9 L107.6 452.0 L106.5 448.9 L103.4 447.8 L106.5 446.7 Z" fill="#E8C65A"/><path d="M291.2 65.8 L292.3 68.9 L295.4 70.1 L292.3 71.2 L291.2 74.3 L290.1 71.2 L287.0 70.1 L290.1 68.9 Z" fill="#E8C65A"/><path d="M1554.3 96.8 L1555.7 100.7 L1559.6 102.2 L1555.7 103.6 L1554.3 107.5 L1552.9 103.6 L1549.0 102.2 L1552.9 100.7 Z" fill="#E8C65A"/><path d="M1221.2 194.7 L1222.6 198.5 L1226.3 199.9 L1222.6 201.3 L1221.2 205.1 L1219.8 201.3 L1216.0 199.9 L1219.8 198.5 Z" fill="#E8C65A"/><path d="M138.0 36.6 L139.1 39.4 L141.9 40.4 L139.1 41.4 L138.0 44.2 L137.0 41.4 L134.2 40.4 L137.0 39.4 Z" fill="#E8C65A"/><path d="M1299.2 223.8 L1300.3 226.9 L1303.4 228.1 L1300.3 229.2 L1299.2 232.3 L1298.0 229.2 L1294.9 228.1 L1298.0 226.9 Z" fill="#E8C65A"/><path d="M1120.9 236.9 L1122.0 240.0 L1125.1 241.1 L1122.0 242.3 L1120.9 245.3 L1119.7 242.3 L1116.7 241.1 L1119.7 240.0 Z" fill="#E8C65A"/><path d="M1513.4 362.5 L1514.5 365.4 L1517.4 366.5 L1514.5 367.6 L1513.4 370.5 L1512.4 367.6 L1509.5 366.5 L1512.4 365.4 Z" fill="#E8C65A"/><path d="M1099.9 271.3 L1101.7 276.1 L1106.4 277.9 L1101.7 279.6 L1099.9 284.4 L1098.2 279.6 L1093.4 277.9 L1098.2 276.1 Z" fill="#E8C65A"/><path d="M1391.4 149.9 L1393.2 155.0 L1398.3 156.8 L1393.2 158.7 L1391.4 163.8 L1389.5 158.7 L1384.4 156.8 L1389.5 155.0 Z" fill="#E8C65A"/><path d="M242.0 217.2 L243.6 221.6 L248.0 223.2 L243.6 224.9 L242.0 229.3 L240.3 224.9 L235.9 223.2 L240.3 221.6 Z" fill="#E8C65A"/><path d="M305.7 256.2 L306.6 258.5 L308.9 259.4 L306.6 260.2 L305.7 262.5 L304.9 260.2 L302.6 259.4 L304.9 258.5 Z" fill="#E8C65A"/><path d="M1276.2 394.6 L1277.7 398.5 L1281.5 399.9 L1277.7 401.4 L1276.2 405.2 L1274.8 401.4 L1271.0 399.9 L1274.8 398.5 Z" fill="#E8C65A"/><path d="M1665.9 164.2 L1667.5 168.5 L1671.7 170.0 L1667.5 171.6 L1665.9 175.8 L1664.3 171.6 L1660.1 170.0 L1664.3 168.5 Z" fill="#E8C65A"/><path d="M1137.4 300.9 L1138.7 304.5 L1142.2 305.7 L1138.7 307.0 L1137.4 310.6 L1136.1 307.0 L1132.6 305.7 L1136.1 304.5 Z" fill="#E8C65A"/><path d="M1599.1 486.9 L1600.5 490.5 L1604.0 491.8 L1600.5 493.1 L1599.1 496.7 L1597.8 493.1 L1594.2 491.8 L1597.8 490.5 Z" fill="#E8C65A"/><path d="M1268.6 35.1 L1270.2 39.4 L1274.4 40.9 L1270.2 42.5 L1268.6 46.7 L1267.0 42.5 L1262.8 40.9 L1267.0 39.4 Z" fill="#E8C65A"/><path d="M1236.6 510.2 L1238.3 514.8 L1242.9 516.5 L1238.3 518.2 L1236.6 522.8 L1234.9 518.2 L1230.3 516.5 L1234.9 514.8 Z" fill="#E8C65A"/><path d="M555.0 201.1 L556.6 205.2 L560.7 206.8 L556.6 208.3 L555.0 212.4 L553.5 208.3 L549.4 206.8 L553.5 205.2 Z" fill="#E8C65A"/><path d="M62.4 241.8 L63.4 244.5 L66.1 245.5 L63.4 246.5 L62.4 249.1 L61.4 246.5 L58.7 245.5 L61.4 244.5 Z" fill="#E8C65A"/><path d="M240.1 34.0 L241.8 38.4 L246.2 40.1 L241.8 41.7 L240.1 46.1 L238.5 41.7 L234.1 40.1 L238.5 38.4 Z" fill="#E8C65A"/><path d="M263.2 131.7 L264.4 135.1 L267.7 136.3 L264.4 137.5 L263.2 140.8 L261.9 137.5 L258.6 136.3 L261.9 135.1 Z" fill="#E8C65A"/><path d="M1658.3 46.3 L1659.6 49.8 L1663.1 51.1 L1659.6 52.4 L1658.3 55.9 L1657.0 52.4 L1653.5 51.1 L1657.0 49.8 Z" fill="#E8C65A"/><path d="M1052.9 454.2 L1054.6 458.8 L1059.2 460.5 L1054.6 462.2 L1052.9 466.8 L1051.3 462.2 L1046.7 460.5 L1051.3 458.8 Z" fill="#E8C65A"/><path d="M1644.3 147.3 L1645.5 150.7 L1649.0 152.0 L1645.5 153.2 L1644.3 156.7 L1643.0 153.2 L1639.6 152.0 L1643.0 150.7 Z" fill="#E8C65A"/><path d="M694.5 454.1 L696.3 459.1 L701.3 460.9 L696.3 462.8 L694.5 467.8 L692.7 462.8 L687.7 460.9 L692.7 459.1 Z" fill="#E8C65A"/><path d="M303.7 95.9 L304.8 98.8 L307.7 99.9 L304.8 100.9 L303.7 103.8 L302.7 100.9 L299.8 99.9 L302.7 98.8 Z" fill="#E8C65A"/><path d="M458.7 252.0 L460.1 255.9 L464.0 257.3 L460.1 258.8 L458.7 262.7 L457.2 258.8 L453.3 257.3 L457.2 255.9 Z" fill="#E8C65A"/><path d="M514.0 7.4 L515.2 10.8 L518.6 12.1 L515.2 13.3 L514.0 16.8 L512.7 13.3 L509.3 12.1 L512.7 10.8 Z" fill="#E8C65A"/><path d="M714.2 292.0 L716.0 297.0 L721.0 298.8 L716.0 300.7 L714.2 305.6 L712.4 300.7 L707.4 298.8 L712.4 297.0 Z" fill="#E8C65A"/><path d="M1318.1 267.4 L1319.6 271.4 L1323.6 272.9 L1319.6 274.4 L1318.1 278.4 L1316.7 274.4 L1312.7 272.9 L1316.7 271.4 Z" fill="#E8C65A"/><path d="M1291.3 30.9 L1293.0 35.8 L1297.9 37.5 L1293.0 39.3 L1291.3 44.1 L1289.5 39.3 L1284.7 37.5 L1289.5 35.8 Z" fill="#E8C65A"/><path d="M1486.3 449.8 L1488.0 454.3 L1492.5 456.0 L1488.0 457.7 L1486.3 462.2 L1484.7 457.7 L1480.2 456.0 L1484.7 454.3 Z" fill="#E8C65A"/><path d="M757.7 210.1 L758.6 212.6 L761.1 213.5 L758.6 214.4 L757.7 216.9 L756.8 214.4 L754.3 213.5 L756.8 212.6 Z" fill="#E8C65A"/><path d="M1212.5 38.5 L1213.3 40.9 L1215.7 41.7 L1213.3 42.6 L1212.5 45.0 L1211.6 42.6 L1209.2 41.7 L1211.6 40.9 Z" fill="#E8C65A"/><path d="M412.5 88.4 L413.6 91.6 L416.8 92.8 L413.6 93.9 L412.5 97.1 L411.3 93.9 L408.1 92.8 L411.3 91.6 Z" fill="#E8C65A"/><path d="M118.8 6.5 L119.8 9.2 L122.4 10.1 L119.8 11.1 L118.8 13.7 L117.9 11.1 L115.2 10.1 L117.9 9.2 Z" fill="#E8C65A"/><path d="M210.8 192.3 L211.6 194.6 L213.9 195.4 L211.6 196.3 L210.8 198.5 L209.9 196.3 L207.7 195.4 L209.9 194.6 Z" fill="#E8C65A"/><path d="M1663.7 319.6 L1664.7 322.2 L1667.3 323.2 L1664.7 324.1 L1663.7 326.8 L1662.8 324.1 L1660.2 323.2 L1662.8 322.2 Z" fill="#E8C65A"/><path d="M494.2 182.7 L495.4 186.0 L498.7 187.2 L495.4 188.4 L494.2 191.6 L493.0 188.4 L489.8 187.2 L493.0 186.0 Z" fill="#E8C65A"/><path d="M250.9 436.0 L252.8 441.1 L257.9 443.0 L252.8 444.8 L250.9 449.9 L249.1 444.8 L244.0 443.0 L249.1 441.1 Z" fill="#E8C65A"/><path d="M896.1 253.4 L897.0 255.9 L899.4 256.8 L897.0 257.7 L896.1 260.1 L895.2 257.7 L892.7 256.8 L895.2 255.9 Z" fill="#E8C65A"/><path d="M212.1 180.7 L213.2 183.7 L216.2 184.7 L213.2 185.8 L212.1 188.8 L211.0 185.8 L208.1 184.7 L211.0 183.7 Z" fill="#E8C65A"/><path d="M1578.2 89.2 L1579.1 91.5 L1581.3 92.3 L1579.1 93.2 L1578.2 95.4 L1577.4 93.2 L1575.2 92.3 L1577.4 91.5 Z" fill="#E8C65A"/><path d="M1807.9 275.8 L1808.8 278.4 L1811.4 279.4 L1808.8 280.4 L1807.9 283.0 L1806.9 280.4 L1804.3 279.4 L1806.9 278.4 Z" fill="#E8C65A"/><path d="M1041.2 18.7 L1042.5 22.4 L1046.3 23.8 L1042.5 25.2 L1041.2 28.9 L1039.8 25.2 L1036.1 23.8 L1039.8 22.4 Z" fill="#E8C65A"/><path d="M1859.6 444.5 L1861.1 448.7 L1865.4 450.3 L1861.1 451.9 L1859.6 456.1 L1858.0 451.9 L1853.8 450.3 L1858.0 448.7 Z" fill="#E8C65A"/><path d="M510.9 193.3 L511.9 196.0 L514.6 197.0 L511.9 198.0 L510.9 200.7 L509.9 198.0 L507.2 197.0 L509.9 196.0 Z" fill="#E8C65A"/><path d="M1471.2 275.5 L1472.9 280.0 L1477.4 281.6 L1472.9 283.3 L1471.2 287.7 L1469.6 283.3 L1465.1 281.6 L1469.6 280.0 Z" fill="#E8C65A"/><path d="M639.8 117.5 L641.4 122.1 L646.0 123.8 L641.4 125.4 L639.8 130.0 L638.1 125.4 L633.5 123.8 L638.1 122.1 Z" fill="#E8C65A"/><path d="M1871.7 438.6 L1873.3 443.2 L1877.9 444.8 L1873.3 446.5 L1871.7 451.1 L1870.0 446.5 L1865.4 444.8 L1870.0 443.2 Z" fill="#E8C65A"/><path d="M1558.5 383.4 L1559.5 386.3 L1562.4 387.3 L1559.5 388.4 L1558.5 391.2 L1557.4 388.4 L1554.6 387.3 L1557.4 386.3 Z" fill="#E8C65A"/><path d="M993.2 188.2 L994.0 190.5 L996.3 191.3 L994.0 192.2 L993.2 194.5 L992.3 192.2 L990.0 191.3 L992.3 190.5 Z" fill="#E8C65A"/><path d="M72.5 148.5 L73.6 151.4 L76.6 152.5 L73.6 153.6 L72.5 156.5 L71.4 153.6 L68.5 152.5 L71.4 151.4 Z" fill="#E8C65A"/><path d="M1321.9 493.0 L1323.2 496.5 L1326.7 497.8 L1323.2 499.1 L1321.9 502.6 L1320.7 499.1 L1317.2 497.8 L1320.7 496.5 Z" fill="#E8C65A"/><path d="M1781.6 507.1 L1783.4 512.1 L1788.4 513.9 L1783.4 515.7 L1781.6 520.7 L1779.8 515.7 L1774.8 513.9 L1779.8 512.1 Z" fill="#E8C65A"/><path d="M705.5 118.5 L706.6 121.4 L709.4 122.4 L706.6 123.5 L705.5 126.3 L704.5 123.5 L701.6 122.4 L704.5 121.4 Z" fill="#E8C65A"/><path d="M389.8 108.7 L391.3 112.8 L395.3 114.2 L391.3 115.7 L389.8 119.7 L388.3 115.7 L384.3 114.2 L388.3 112.8 Z" fill="#E8C65A"/><path d="M1712.6 433.7 L1713.9 437.3 L1717.5 438.6 L1713.9 439.9 L1712.6 443.5 L1711.3 439.9 L1707.7 438.6 L1711.3 437.3 Z" fill="#E8C65A"/><path d="M1247.6 414.5 L1248.5 416.9 L1250.9 417.8 L1248.5 418.7 L1247.6 421.2 L1246.7 418.7 L1244.3 417.8 L1246.7 416.9 Z" fill="#E8C65A"/><path d="M1261.9 467.9 L1263.5 472.3 L1268.0 474.0 L1263.5 475.6 L1261.9 480.1 L1260.3 475.6 L1255.8 474.0 L1260.3 472.3 Z" fill="#E8C65A"/><path d="M1430.3 250.1 L1431.3 252.8 L1434.0 253.8 L1431.3 254.8 L1430.3 257.5 L1429.3 254.8 L1426.5 253.8 L1429.3 252.8 Z" fill="#E8C65A"/><path d="M1503.6 173.4 L1505.2 177.9 L1509.8 179.6 L1505.2 181.3 L1503.6 185.8 L1501.9 181.3 L1497.4 179.6 L1501.9 177.9 Z" fill="#E8C65A"/><rect width="1920" height="864" fill="url(#glow)"/><circle cx="1640" cy="120" r="54" fill="#FBF7EC" stroke="#C99A2E" stroke-width="3"/><path d="M0 520 Q480 470 960 500 Q1440 530 1920 480 L1920 864 L0 864 Z" fill="#6B4626" stroke="#2B1B12" stroke-width="2" stroke-linejoin="round" stroke-linecap="round" /><path d="M840 500 L840 428.0 L960.0 428.0 L960.0 500 Z" fill="#E6D3A8" stroke="#2B1B12" stroke-width="2" stroke-linejoin="round" stroke-linecap="round" /><path d="M840.0 428.0 l0 -7.199999999999999 l7.199999999999999 0 l0 7.199999999999999 Z" fill="#E6D3A8" stroke="#2B1B12" stroke-width="1.5" stroke-linejoin="round" stroke-linecap="round" /><path d="M855.0 428.0 l0 -7.199999999999999 l7.199999999999999 0 l0 7.199999999999999 Z" fill="#E6D3A8" stroke="#2B1B12" stroke-width="1.5" stroke-linejoin="round" stroke-linecap="round" /><path d="M870.0 428.0 l0 -7.199999999999999 l7.199999999999999 0 l0 7.199999999999999 Z" fill="#E6D3A8" stroke="#2B1B12" stroke-width="1.5" stroke-linejoin="round" stroke-linecap="round" /><path d="M885.0 428.0 l0 -7.199999999999999 l7.199999999999999 0 l0 7.199999999999999 Z" fill="#E6D3A8" stroke="#2B1B12" stroke-width="1.5" stroke-linejoin="round" stroke-linecap="round" /><path d="M900.0 428.0 l0 -7.199999999999999 l7.199999999999999 0 l0 7.199999999999999 Z" fill="#E6D3A8" stroke="#2B1B12" stroke-width="1.5" stroke-linejoin="round" stroke-linecap="round" /><path d="M915.0 428.0 l0 -7.199999999999999 l7.199999999999999 0 l0 7.199999999999999 Z" fill="#E6D3A8" stroke="#2B1B12" stroke-width="1.5" stroke-linejoin="round" stroke-linecap="round" /><path d="M930.0 428.0 l0 -7.199999999999999 l7.199999999999999 0 l0 7.199999999999999 Z" fill="#E6D3A8" stroke="#2B1B12" stroke-width="1.5" stroke-linejoin="round" stroke-linecap="round" /><path d="M945.0 428.0 l0 -7.199999999999999 l7.199999999999999 0 l0 7.199999999999999 Z" fill="#E6D3A8" stroke="#2B1B12" stroke-width="1.5" stroke-linejoin="round" stroke-linecap="round" /><path d="M960.0 428.0 l0 -7.199999999999999 l7.199999999999999 0 l0 7.199999999999999 Z" fill="#E6D3A8" stroke="#2B1B12" stroke-width="1.5" stroke-linejoin="round" stroke-linecap="round" /><path d="M876.0 428.0 Q900.0 368.0 924.0 428.0 Z" fill="#1F3C88" stroke="#2B1B12" stroke-width="2" stroke-linejoin="round" stroke-linecap="round" /><path d="M891.0 500 L891.0 470.0 Q900.0 455.6 909.0 470.0 L909.0 500 Z" fill="#6B4626" stroke="#2B1B12" stroke-width="2" stroke-linejoin="round" stroke-linecap="round" /><path d="M822.0 500 L822.0 398.0 L846.0 398.0 L846.0 500 Z" fill="#E6D3A8" stroke="#2B1B12" stroke-width="2" stroke-linejoin="round" stroke-linecap="round" /><path d="M819.6 398.0 L834.0 380.0 L848.4 398.0 Z" fill="#C2412D" stroke="#2B1B12" stroke-width="2" stroke-linejoin="round" stroke-linecap="round" /><rect x="858" y="443" width="6" height="13" rx="3" fill="#2B1B12"/><rect x="894" y="443" width="6" height="13" rx="3" fill="#2B1B12"/><rect x="930" y="443" width="6" height="13" rx="3" fill="#2B1B12"/><path d="M336 598 Q334 558 350 552 Q366 558 364 598 Z" fill="#5A2E5E" stroke="#2B1B12" stroke-width="1.4" stroke-linejoin="round" stroke-linecap="round" /><circle cx="350" cy="544" r="9" fill="#F3D9BC" stroke="#2B1B12" stroke-width="1.2"/><path d="M340 542 Q350 524 360 542 Z" fill="#1F3C88" stroke="#2B1B12" stroke-width="1.2" stroke-linejoin="round" stroke-linecap="round" /><path d="M327 604 Q325 564 341 558 Q357 564 355 604 Z" fill="#C2412D" stroke="#2B1B12" stroke-width="1.4" stroke-linejoin="round" stroke-linecap="round" /><circle cx="341" cy="550" r="9" fill="#F3D9BC" stroke="#2B1B12" stroke-width="1.2"/><path d="M331 548 Q341 530 351 548 Z" fill="#FBF7EC" stroke="#2B1B12" stroke-width="1.2" stroke-linejoin="round" stroke-linecap="round" /><path d="M-4 602 Q-6 562 10 556 Q26 562 24 602 Z" fill="#5A2E5E" stroke="#2B1B12" stroke-width="1.4" stroke-linejoin="round" stroke-linecap="round" /><circle cx="10" cy="548" r="9" fill="#F3D9BC" stroke="#2B1B12" stroke-width="1.2"/><path d="M-0 546 Q10 528 20 546 Z" fill="#1F3C88" stroke="#2B1B12" stroke-width="1.2" stroke-linejoin="round" stroke-linecap="round" /><path d="M39 607 Q37 567 53 561 Q69 567 67 607 Z" fill="#5A2E5E" stroke="#2B1B12" stroke-width="1.4" stroke-linejoin="round" stroke-linecap="round" /><circle cx="53" cy="553" r="9" fill="#F3D9BC" stroke="#2B1B12" stroke-width="1.2"/><path d="M43 551 Q53 533 63 551 Z" fill="#1F3C88" stroke="#2B1B12" stroke-width="1.2" stroke-linejoin="round" stroke-linecap="round" /><path d="M323 593 Q321 553 337 547 Q353 553 351 593 Z" fill="#E3A42B" stroke="#2B1B12" stroke-width="1.4" stroke-linejoin="round" stroke-linecap="round" /><circle cx="337" cy="539" r="9" fill="#F3D9BC" stroke="#2B1B12" stroke-width="1.2"/><path d="M327 537 Q337 519 347 537 Z" fill="#FBF7EC" stroke="#2B1B12" stroke-width="1.2" stroke-linejoin="round" stroke-linecap="round" /><path d="M-6 606 Q-8 566 8 560 Q24 566 22 606 Z" fill="#1F3C88" stroke="#2B1B12" stroke-width="1.4" stroke-linejoin="round" stroke-linecap="round" /><circle cx="8" cy="552" r="9" fill="#F3D9BC" stroke="#2B1B12" stroke-width="1.2"/><path d="M-2 550 Q8 532 18 550 Z" fill="#1F3C88" stroke="#2B1B12" stroke-width="1.2" stroke-linejoin="round" stroke-linecap="round" /><path d="M256 593 Q254 553 270 547 Q286 553 284 593 Z" fill="#C2412D" stroke="#2B1B12" stroke-width="1.4" stroke-linejoin="round" stroke-linecap="round" /><circle cx="270" cy="539" r="9" fill="#F3D9BC" stroke="#2B1B12" stroke-width="1.2"/><path d="M260 537 Q270 519 280 537 Z" fill="#FBF7EC" stroke="#2B1B12" stroke-width="1.2" stroke-linejoin="round" stroke-linecap="round" /><path d="M-4 594 Q-6 554 10 548 Q26 554 24 594 Z" fill="#E3A42B" stroke="#2B1B12" stroke-width="1.4" stroke-linejoin="round" stroke-linecap="round" /><circle cx="10" cy="540" r="9" fill="#F3D9BC" stroke="#2B1B12" stroke-width="1.2"/><path d="M0 538 Q10 520 20 538 Z" fill="#FBF7EC" stroke="#2B1B12" stroke-width="1.2" stroke-linejoin="round" stroke-linecap="round" /><path d="M261 597 Q259 557 275 551 Q291 557 289 597 Z" fill="#E3A42B" stroke="#2B1B12" stroke-width="1.4" stroke-linejoin="round" stroke-linecap="round" /><circle cx="275" cy="543" r="9" fill="#F3D9BC" stroke="#2B1B12" stroke-width="1.2"/><path d="M265 541 Q275 523 285 541 Z" fill="#C2412D" stroke="#2B1B12" stroke-width="1.2" stroke-linejoin="round" stroke-linecap="round" /><path d="M286 591 Q284 551 300 545 Q316 551 314 591 Z" fill="#2E9C95" stroke="#2B1B12" stroke-width="1.4" stroke-linejoin="round" stroke-linecap="round" /><circle cx="300" cy="537" r="9" fill="#F3D9BC" stroke="#2B1B12" stroke-width="1.2"/><path d="M290 535 Q300 517 310 535 Z" fill="#C2412D" stroke="#2B1B12" stroke-width="1.2" stroke-linejoin="round" stroke-linecap="round" /><path d="M224 606 Q222 566 238 560 Q254 566 252 606 Z" fill="#E3A42B" stroke="#2B1B12" stroke-width="1.4" stroke-linejoin="round" stroke-linecap="round" /><circle cx="238" cy="552" r="9" fill="#F3D9BC" stroke="#2B1B12" stroke-width="1.2"/><path d="M228 550 Q238 532 248 550 Z" fill="#C2412D" stroke="#2B1B12" stroke-width="1.2" stroke-linejoin="round" stroke-linecap="round" /><path d="M284 608 Q282 568 298 562 Q314 568 312 608 Z" fill="#C2412D" stroke="#2B1B12" stroke-width="1.4" stroke-linejoin="round" stroke-linecap="round" /><circle cx="298" cy="554" r="9" fill="#F3D9BC" stroke="#2B1B12" stroke-width="1.2"/><path d="M288 552 Q298 534 308 552 Z" fill="#1F3C88" stroke="#2B1B12" stroke-width="1.2" stroke-linejoin="round" stroke-linecap="round" /><path d="M41 600 Q39 560 55 554 Q71 560 69 600 Z" fill="#5A2E5E" stroke="#2B1B12" stroke-width="1.4" stroke-linejoin="round" stroke-linecap="round" /><circle cx="55" cy="546" r="9" fill="#F3D9BC" stroke="#2B1B12" stroke-width="1.2"/><path d="M45 544 Q55 526 65 544 Z" fill="#FBF7EC" stroke="#2B1B12" stroke-width="1.2" stroke-linejoin="round" stroke-linecap="round" /><path d="M205 606 Q203 566 219 560 Q235 566 233 606 Z" fill="#C2412D" stroke="#2B1B12" stroke-width="1.4" stroke-linejoin="round" stroke-linecap="round" /><circle cx="219" cy="552" r="9" fill="#F3D9BC" stroke="#2B1B12" stroke-width="1.2"/><path d="M209 550 Q219 532 229 550 Z" fill="#FBF7EC" stroke="#2B1B12" stroke-width="1.2" stroke-linejoin="round" stroke-linecap="round" /><path d="M37 602 Q35 562 51 556 Q67 562 65 602 Z" fill="#1F3C88" stroke="#2B1B12" stroke-width="1.4" stroke-linejoin="round" stroke-linecap="round" /><circle cx="51" cy="548" r="9" fill="#F3D9BC" stroke="#2B1B12" stroke-width="1.2"/><path d="M41 546 Q51 528 61 546 Z" fill="#1F3C88" stroke="#2B1B12" stroke-width="1.2" stroke-linejoin="round" stroke-linecap="round" /><path d="M8 604 Q6 564 22 558 Q38 564 36 604 Z" fill="#E3A42B" stroke="#2B1B12" stroke-width="1.4" stroke-linejoin="round" stroke-linecap="round" /><circle cx="22" cy="550" r="9" fill="#F3D9BC" stroke="#2B1B12" stroke-width="1.2"/><path d="M12 548 Q22 530 32 548 Z" fill="#1F3C88" stroke="#2B1B12" stroke-width="1.2" stroke-linejoin="round" stroke-linecap="round" /><path d="M160 606 Q158 566 174 560 Q190 566 188 606 Z" fill="#E3A42B" stroke="#2B1B12" stroke-width="1.4" stroke-linejoin="round" stroke-linecap="round" /><circle cx="174" cy="552" r="9" fill="#F3D9BC" stroke="#2B1B12" stroke-width="1.2"/><path d="M164 550 Q174 532 184 550 Z" fill="#FBF7EC" stroke="#2B1B12" stroke-width="1.2" stroke-linejoin="round" stroke-linecap="round" /><path d="M75 596 Q73 556 89 550 Q105 556 103 596 Z" fill="#1F3C88" stroke="#2B1B12" stroke-width="1.4" stroke-linejoin="round" stroke-linecap="round" /><circle cx="89" cy="542" r="9" fill="#F3D9BC" stroke="#2B1B12" stroke-width="1.2"/><path d="M79 540 Q89 522 99 540 Z" fill="#1F3C88" stroke="#2B1B12" stroke-width="1.2" stroke-linejoin="round" stroke-linecap="round" /><path d="M149 591 Q147 551 163 545 Q179 551 177 591 Z" fill="#1F3C88" stroke="#2B1B12" stroke-width="1.4" stroke-linejoin="round" stroke-linecap="round" /><circle cx="163" cy="537" r="9" fill="#F3D9BC" stroke="#2B1B12" stroke-width="1.2"/><path d="M153 535 Q163 517 173 535 Z" fill="#C2412D" stroke="#2B1B12" stroke-width="1.2" stroke-linejoin="round" stroke-linecap="round" /><path d="M103 609 Q101 569 117 563 Q133 569 131 609 Z" fill="#E3A42B" stroke="#2B1B12" stroke-width="1.4" stroke-linejoin="round" stroke-linecap="round" /><circle cx="117" cy="555" r="9" fill="#F3D9BC" stroke="#2B1B12" stroke-width="1.2"/><path d="M107 553 Q117 535 127 553 Z" fill="#1F3C88" stroke="#2B1B12" stroke-width="1.2" stroke-linejoin="round" stroke-linecap="round" /><path d="M58 596 Q56 556 72 550 Q88 556 86 596 Z" fill="#E3A42B" stroke="#2B1B12" stroke-width="1.4" stroke-linejoin="round" stroke-linecap="round" /><circle cx="72" cy="542" r="9" fill="#F3D9BC" stroke="#2B1B12" stroke-width="1.2"/><path d="M62 540 Q72 522 82 540 Z" fill="#1F3C88" stroke="#2B1B12" stroke-width="1.2" stroke-linejoin="round" stroke-linecap="round" /><path d="M277 600 Q275 560 291 554 Q307 560 305 600 Z" fill="#C2412D" stroke="#2B1B12" stroke-width="1.4" stroke-linejoin="round" stroke-linecap="round" /><circle cx="291" cy="546" r="9" fill="#F3D9BC" stroke="#2B1B12" stroke-width="1.2"/><path d="M281 544 Q291 526 301 544 Z" fill="#1F3C88" stroke="#2B1B12" stroke-width="1.2" stroke-linejoin="round" stroke-linecap="round" /><path d="M1734 608 Q1732 568 1748 562 Q1764 568 1762 608 Z" fill="#2E9C95" stroke="#2B1B12" stroke-width="1.4" stroke-linejoin="round" stroke-linecap="round" /><circle cx="1748" cy="554" r="9" fill="#F3D9BC" stroke="#2B1B12" stroke-width="1.2"/><path d="M1738 552 Q1748 534 1758 552 Z" fill="#1F3C88" stroke="#2B1B12" stroke-width="1.2" stroke-linejoin="round" stroke-linecap="round" /><path d="M1867 594 Q1865 554 1881 548 Q1897 554 1895 594 Z" fill="#5A2E5E" stroke="#2B1B12" stroke-width="1.4" stroke-linejoin="round" stroke-linecap="round" /><circle cx="1881" cy="540" r="9" fill="#F3D9BC" stroke="#2B1B12" stroke-width="1.2"/><path d="M1871 538 Q1881 520 1891 538 Z" fill="#FBF7EC" stroke="#2B1B12" stroke-width="1.2" stroke-linejoin="round" stroke-linecap="round" /><path d="M1696 598 Q1694 558 1710 552 Q1726 558 1724 598 Z" fill="#2E9C95" stroke="#2B1B12" stroke-width="1.4" stroke-linejoin="round" stroke-linecap="round" /><circle cx="1710" cy="544" r="9" fill="#F3D9BC" stroke="#2B1B12" stroke-width="1.2"/><path d="M1700 542 Q1710 524 1720 542 Z" fill="#FBF7EC" stroke="#2B1B12" stroke-width="1.2" stroke-linejoin="round" stroke-linecap="round" /><path d="M1788 599 Q1786 559 1802 553 Q1818 559 1816 599 Z" fill="#C2412D" stroke="#2B1B12" stroke-width="1.4" stroke-linejoin="round" stroke-linecap="round" /><circle cx="1802" cy="545" r="9" fill="#F3D9BC" stroke="#2B1B12" stroke-width="1.2"/><path d="M1792 543 Q1802 525 1812 543 Z" fill="#1F3C88" stroke="#2B1B12" stroke-width="1.2" stroke-linejoin="round" stroke-linecap="round" /><path d="M1655 592 Q1653 552 1669 546 Q1685 552 1683 592 Z" fill="#C2412D" stroke="#2B1B12" stroke-width="1.4" stroke-linejoin="round" stroke-linecap="round" /><circle cx="1669" cy="538" r="9" fill="#F3D9BC" stroke="#2B1B12" stroke-width="1.2"/><path d="M1659 536 Q1669 518 1679 536 Z" fill="#1F3C88" stroke="#2B1B12" stroke-width="1.2" stroke-linejoin="round" stroke-linecap="round" /><path d="M1778 597 Q1776 557 1792 551 Q1808 557 1806 597 Z" fill="#2E9C95" stroke="#2B1B12" stroke-width="1.4" stroke-linejoin="round" stroke-linecap="round" /><circle cx="1792" cy="543" r="9" fill="#F3D9BC" stroke="#2B1B12" stroke-width="1.2"/><path d="M1782 541 Q1792 523 1802 541 Z" fill="#FBF7EC" stroke="#2B1B12" stroke-width="1.2" stroke-linejoin="round" stroke-linecap="round" /><path d="M1894 594 Q1892 554 1908 548 Q1924 554 1922 594 Z" fill="#1F3C88" stroke="#2B1B12" stroke-width="1.4" stroke-linejoin="round" stroke-linecap="round" /><circle cx="1908" cy="540" r="9" fill="#F3D9BC" stroke="#2B1B12" stroke-width="1.2"/><path d="M1898 538 Q1908 520 1918 538 Z" fill="#C2412D" stroke="#2B1B12" stroke-width="1.2" stroke-linejoin="round" stroke-linecap="round" /><path d="M1865 593 Q1863 553 1879 547 Q1895 553 1893 593 Z" fill="#C2412D" stroke="#2B1B12" stroke-width="1.4" stroke-linejoin="round" stroke-linecap="round" /><circle cx="1879" cy="539" r="9" fill="#F3D9BC" stroke="#2B1B12" stroke-width="1.2"/><path d="M1869 537 Q1879 519 1889 537 Z" fill="#FBF7EC" stroke="#2B1B12" stroke-width="1.2" stroke-linejoin="round" stroke-linecap="round" /><path d="M1800 610 Q1798 570 1814 564 Q1830 570 1828 610 Z" fill="#5A2E5E" stroke="#2B1B12" stroke-width="1.4" stroke-linejoin="round" stroke-linecap="round" /><circle cx="1814" cy="556" r="9" fill="#F3D9BC" stroke="#2B1B12" stroke-width="1.2"/><path d="M1804 554 Q1814 536 1824 554 Z" fill="#C2412D" stroke="#2B1B12" stroke-width="1.2" stroke-linejoin="round" stroke-linecap="round" /><path d="M1698 597 Q1696 557 1712 551 Q1728 557 1726 597 Z" fill="#1F3C88" stroke="#2B1B12" stroke-width="1.4" stroke-linejoin="round" stroke-linecap="round" /><circle cx="1712" cy="543" r="9" fill="#F3D9BC" stroke="#2B1B12" stroke-width="1.2"/><path d="M1702 541 Q1712 523 1722 541 Z" fill="#1F3C88" stroke="#2B1B12" stroke-width="1.2" stroke-linejoin="round" stroke-linecap="round" /><path d="M1678 597 Q1676 557 1692 551 Q1708 557 1706 597 Z" fill="#5A2E5E" stroke="#2B1B12" stroke-width="1.4" stroke-linejoin="round" stroke-linecap="round" /><circle cx="1692" cy="543" r="9" fill="#F3D9BC" stroke="#2B1B12" stroke-width="1.2"/><path d="M1682 541 Q1692 523 1702 541 Z" fill="#C2412D" stroke="#2B1B12" stroke-width="1.2" stroke-linejoin="round" stroke-linecap="round" /><path d="M1799 598 Q1797 558 1813 552 Q1829 558 1827 598 Z" fill="#E3A42B" stroke="#2B1B12" stroke-width="1.4" stroke-linejoin="round" stroke-linecap="round" /><circle cx="1813" cy="544" r="9" fill="#F3D9BC" stroke="#2B1B12" stroke-width="1.2"/><path d="M1803 542 Q1813 524 1823 542 Z" fill="#1F3C88" stroke="#2B1B12" stroke-width="1.2" stroke-linejoin="round" stroke-linecap="round" /><path d="M1652 609 Q1650 569 1666 563 Q1682 569 1680 609 Z" fill="#1F3C88" stroke="#2B1B12" stroke-width="1.4" stroke-linejoin="round" stroke-linecap="round" /><circle cx="1666" cy="555" r="9" fill="#F3D9BC" stroke="#2B1B12" stroke-width="1.2"/><path d="M1656 553 Q1666 535 1676 553 Z" fill="#FBF7EC" stroke="#2B1B12" stroke-width="1.2" stroke-linejoin="round" stroke-linecap="round" /><path d="M1896 592 Q1894 552 1910 546 Q1926 552 1924 592 Z" fill="#2E9C95" stroke="#2B1B12" stroke-width="1.4" stroke-linejoin="round" stroke-linecap="round" /><circle cx="1910" cy="538" r="9" fill="#F3D9BC" stroke="#2B1B12" stroke-width="1.2"/><path d="M1900 536 Q1910 518 1920 536 Z" fill="#C2412D" stroke="#2B1B12" stroke-width="1.2" stroke-linejoin="round" stroke-linecap="round" /><path d="M1560 606 Q1558 566 1574 560 Q1590 566 1588 606 Z" fill="#2E9C95" stroke="#2B1B12" stroke-width="1.4" stroke-linejoin="round" stroke-linecap="round" /><circle cx="1574" cy="552" r="9" fill="#F3D9BC" stroke="#2B1B12" stroke-width="1.2"/><path d="M1564 550 Q1574 532 1584 550 Z" fill="#FBF7EC" stroke="#2B1B12" stroke-width="1.2" stroke-linejoin="round" stroke-linecap="round" /><path d="M1841 607 Q1839 567 1855 561 Q1871 567 1869 607 Z" fill="#2E9C95" stroke="#2B1B12" stroke-width="1.4" stroke-linejoin="round" stroke-linecap="round" /><circle cx="1855" cy="553" r="9" fill="#F3D9BC" stroke="#2B1B12" stroke-width="1.2"/><path d="M1845 551 Q1855 533 1865 551 Z" fill="#C2412D" stroke="#2B1B12" stroke-width="1.2" stroke-linejoin="round" stroke-linecap="round" /><path d="M1600 608 Q1598 568 1614 562 Q1630 568 1628 608 Z" fill="#E3A42B" stroke="#2B1B12" stroke-width="1.4" stroke-linejoin="round" stroke-linecap="round" /><circle cx="1614" cy="554" r="9" fill="#F3D9BC" stroke="#2B1B12" stroke-width="1.2"/><path d="M1604 552 Q1614 534 1624 552 Z" fill="#C2412D" stroke="#2B1B12" stroke-width="1.2" stroke-linejoin="round" stroke-linecap="round" /><path d="M1798 592 Q1796 552 1812 546 Q1828 552 1826 592 Z" fill="#1F3C88" stroke="#2B1B12" stroke-width="1.4" stroke-linejoin="round" stroke-linecap="round" /><circle cx="1812" cy="538" r="9" fill="#F3D9BC" stroke="#2B1B12" stroke-width="1.2"/><path d="M1802 536 Q1812 518 1822 536 Z" fill="#1F3C88" stroke="#2B1B12" stroke-width="1.2" stroke-linejoin="round" stroke-linecap="round" /><path d="M1612 608 Q1610 568 1626 562 Q1642 568 1640 608 Z" fill="#2E9C95" stroke="#2B1B12" stroke-width="1.4" stroke-linejoin="round" stroke-linecap="round" /><circle cx="1626" cy="554" r="9" fill="#F3D9BC" stroke="#2B1B12" stroke-width="1.2"/><path d="M1616 552 Q1626 534 1636 552 Z" fill="#FBF7EC" stroke="#2B1B12" stroke-width="1.2" stroke-linejoin="round" stroke-linecap="round" /><path d="M1774 606 Q1772 566 1788 560 Q1804 566 1802 606 Z" fill="#1F3C88" stroke="#2B1B12" stroke-width="1.4" stroke-linejoin="round" stroke-linecap="round" /><circle cx="1788" cy="552" r="9" fill="#F3D9BC" stroke="#2B1B12" stroke-width="1.2"/><path d="M1778 550 Q1788 532 1798 550 Z" fill="#1F3C88" stroke="#2B1B12" stroke-width="1.2" stroke-linejoin="round" stroke-linecap="round" /><path d="M1854 591 Q1852 551 1868 545 Q1884 551 1882 591 Z" fill="#1F3C88" stroke="#2B1B12" stroke-width="1.4" stroke-linejoin="round" stroke-linecap="round" /><circle cx="1868" cy="537" r="9" fill="#F3D9BC" stroke="#2B1B12" stroke-width="1.2"/><path d="M1858 535 Q1868 517 1878 535 Z" fill="#C2412D" stroke="#2B1B12" stroke-width="1.2" stroke-linejoin="round" stroke-linecap="round" /><path d="M1550 610 Q1548 570 1564 564 Q1580 570 1578 610 Z" fill="#5A2E5E" stroke="#2B1B12" stroke-width="1.4" stroke-linejoin="round" stroke-linecap="round" /><circle cx="1564" cy="556" r="9" fill="#F3D9BC" stroke="#2B1B12" stroke-width="1.2"/><path d="M1554 554 Q1564 536 1574 554 Z" fill="#C2412D" stroke="#2B1B12" stroke-width="1.2" stroke-linejoin="round" stroke-linecap="round" /><rect x="300" y="744" width="117" height="16" rx="8" fill="#6B4626" stroke="#2B1B12" stroke-width="1.5"/><circle cx="409" cy="752" r="5" fill="#9C6B3E" stroke="#2B1B12" stroke-width="1"/><rect x="411" y="744" width="83" height="16" rx="8" fill="#6B4626" stroke="#2B1B12" stroke-width="1.5"/><circle cx="486" cy="752" r="5" fill="#9C6B3E" stroke="#2B1B12" stroke-width="1"/><rect x="488" y="744" width="123" height="16" rx="8" fill="#6B4626" stroke="#2B1B12" stroke-width="1.5"/><circle cx="602" cy="752" r="5" fill="#9C6B3E" stroke="#2B1B12" stroke-width="1"/><rect x="604" y="744" width="136" height="16" rx="8" fill="#6B4626" stroke="#2B1B12" stroke-width="1.5"/><circle cx="733" cy="752" r="5" fill="#9C6B3E" stroke="#2B1B12" stroke-width="1"/><rect x="735" y="744" width="138" height="16" rx="8" fill="#6B4626" stroke="#2B1B12" stroke-width="1.5"/><circle cx="865" cy="752" r="5" fill="#9C6B3E" stroke="#2B1B12" stroke-width="1"/><rect x="867" y="744" width="96" height="16" rx="8" fill="#6B4626" stroke="#2B1B12" stroke-width="1.5"/><circle cx="955" cy="752" r="5" fill="#9C6B3E" stroke="#2B1B12" stroke-width="1"/><rect x="350" y="726" width="91" height="16" rx="8" fill="#6B4626" stroke="#2B1B12" stroke-width="1.5"/><circle cx="433" cy="734" r="5" fill="#9C6B3E" stroke="#2B1B12" stroke-width="1"/><rect x="435" y="726" width="136" height="16" rx="8" fill="#6B4626" stroke="#2B1B12" stroke-width="1.5"/><circle cx="563" cy="734" r="5" fill="#9C6B3E" stroke="#2B1B12" stroke-width="1"/><rect x="565" y="726" width="118" height="16" rx="8" fill="#6B4626" stroke="#2B1B12" stroke-width="1.5"/><circle cx="675" cy="734" r="5" fill="#9C6B3E" stroke="#2B1B12" stroke-width="1"/><rect x="677" y="726" width="112" height="16" rx="8" fill="#6B4626" stroke="#2B1B12" stroke-width="1.5"/><circle cx="780" cy="734" r="5" fill="#9C6B3E" stroke="#2B1B12" stroke-width="1"/><rect x="782" y="726" width="92" height="16" rx="8" fill="#6B4626" stroke="#2B1B12" stroke-width="1.5"/><circle cx="867" cy="734" r="5" fill="#9C6B3E" stroke="#2B1B12" stroke-width="1"/><rect x="869" y="726" width="107" height="16" rx="8" fill="#6B4626" stroke="#2B1B12" stroke-width="1.5"/><circle cx="967" cy="734" r="5" fill="#9C6B3E" stroke="#2B1B12" stroke-width="1"/><rect x="360" y="708" width="120" height="16" rx="8" fill="#6B4626" stroke="#2B1B12" stroke-width="1.5"/><circle cx="472" cy="716" r="5" fill="#9C6B3E" stroke="#2B1B12" stroke-width="1"/><rect x="474" y="708" width="96" height="16" rx="8" fill="#6B4626" stroke="#2B1B12" stroke-width="1.5"/><circle cx="563" cy="716" r="5" fill="#9C6B3E" stroke="#2B1B12" stroke-width="1"/><rect x="565" y="708" width="128" height="16" rx="8" fill="#6B4626" stroke="#2B1B12" stroke-width="1.5"/><circle cx="685" cy="716" r="5" fill="#9C6B3E" stroke="#2B1B12" stroke-width="1"/><rect x="687" y="708" width="140" height="16" rx="8" fill="#6B4626" stroke="#2B1B12" stroke-width="1.5"/><circle cx="818" cy="716" r="5" fill="#9C6B3E" stroke="#2B1B12" stroke-width="1"/><rect x="820" y="708" width="82" height="16" rx="8" fill="#6B4626" stroke="#2B1B12" stroke-width="1.5"/><circle cx="895" cy="716" r="5" fill="#9C6B3E" stroke="#2B1B12" stroke-width="1"/><rect x="410" y="690" width="81" height="16" rx="8" fill="#6B4626" stroke="#2B1B12" stroke-width="1.5"/><circle cx="483" cy="698" r="5" fill="#9C6B3E" stroke="#2B1B12" stroke-width="1"/><rect x="485" y="690" width="110" height="16" rx="8" fill="#6B4626" stroke="#2B1B12" stroke-width="1.5"/><circle cx="587" cy="698" r="5" fill="#9C6B3E" stroke="#2B1B12" stroke-width="1"/><rect x="589" y="690" width="139" height="16" rx="8" fill="#6B4626" stroke="#2B1B12" stroke-width="1.5"/><circle cx="720" cy="698" r="5" fill="#9C6B3E" stroke="#2B1B12" stroke-width="1"/><rect x="722" y="690" width="111" height="16" rx="8" fill="#6B4626" stroke="#2B1B12" stroke-width="1.5"/><circle cx="825" cy="698" r="5" fill="#9C6B3E" stroke="#2B1B12" stroke-width="1"/><rect x="420" y="672" width="95" height="16" rx="8" fill="#6B4626" stroke="#2B1B12" stroke-width="1.5"/><circle cx="507" cy="680" r="5" fill="#9C6B3E" stroke="#2B1B12" stroke-width="1"/><rect x="509" y="672" width="107" height="16" rx="8" fill="#6B4626" stroke="#2B1B12" stroke-width="1.5"/><circle cx="608" cy="680" r="5" fill="#9C6B3E" stroke="#2B1B12" stroke-width="1"/><rect x="610" y="672" width="119" height="16" rx="8" fill="#6B4626" stroke="#2B1B12" stroke-width="1.5"/><circle cx="721" cy="680" r="5" fill="#9C6B3E" stroke="#2B1B12" stroke-width="1"/><rect x="723" y="672" width="119" height="16" rx="8" fill="#6B4626" stroke="#2B1B12" stroke-width="1.5"/><circle cx="834" cy="680" r="5" fill="#9C6B3E" stroke="#2B1B12" stroke-width="1"/><rect x="470" y="654" width="119" height="16" rx="8" fill="#6B4626" stroke="#2B1B12" stroke-width="1.5"/><circle cx="581" cy="662" r="5" fill="#9C6B3E" stroke="#2B1B12" stroke-width="1"/><rect x="583" y="654" width="113" height="16" rx="8" fill="#6B4626" stroke="#2B1B12" stroke-width="1.5"/><circle cx="688" cy="662" r="5" fill="#9C6B3E" stroke="#2B1B12" stroke-width="1"/><rect x="690" y="654" width="133" height="16" rx="8" fill="#6B4626" stroke="#2B1B12" stroke-width="1.5"/><circle cx="815" cy="662" r="5" fill="#9C6B3E" stroke="#2B1B12" stroke-width="1"/><rect x="480" y="636" width="138" height="16" rx="8" fill="#6B4626" stroke="#2B1B12" stroke-width="1.5"/><circle cx="610" cy="644" r="5" fill="#9C6B3E" stroke="#2B1B12" stroke-width="1"/><rect x="612" y="636" width="98" height="16" rx="8" fill="#6B4626" stroke="#2B1B12" stroke-width="1.5"/><circle cx="703" cy="644" r="5" fill="#9C6B3E" stroke="#2B1B12" stroke-width="1"/><rect x="705" y="636" width="93" height="16" rx="8" fill="#6B4626" stroke="#2B1B12" stroke-width="1.5"/><circle cx="790" cy="644" r="5" fill="#9C6B3E" stroke="#2B1B12" stroke-width="1"/><rect x="530" y="618" width="94" height="16" rx="8" fill="#6B4626" stroke="#2B1B12" stroke-width="1.5"/><circle cx="616" cy="626" r="5" fill="#9C6B3E" stroke="#2B1B12" stroke-width="1"/><rect x="618" y="618" width="92" height="16" rx="8" fill="#6B4626" stroke="#2B1B12" stroke-width="1.5"/><circle cx="702" cy="626" r="5" fill="#9C6B3E" stroke="#2B1B12" stroke-width="1"/><rect x="1040" y="744" width="133" height="16" rx="8" fill="#6B4626" stroke="#2B1B12" stroke-width="1.5"/><circle cx="1165" cy="752" r="5" fill="#9C6B3E" stroke="#2B1B12" stroke-width="1"/><rect x="1167" y="744" width="124" height="16" rx="8" fill="#6B4626" stroke="#2B1B12" stroke-width="1.5"/><circle cx="1283" cy="752" r="5" fill="#9C6B3E" stroke="#2B1B12" stroke-width="1"/><rect x="1285" y="744" width="88" height="16" rx="8" fill="#6B4626" stroke="#2B1B12" stroke-width="1.5"/><circle cx="1365" cy="752" r="5" fill="#9C6B3E" stroke="#2B1B12" stroke-width="1"/><rect x="1367" y="744" width="139" height="16" rx="8" fill="#6B4626" stroke="#2B1B12" stroke-width="1.5"/><circle cx="1498" cy="752" r="5" fill="#9C6B3E" stroke="#2B1B12" stroke-width="1"/><rect x="1500" y="744" width="139" height="16" rx="8" fill="#6B4626" stroke="#2B1B12" stroke-width="1.5"/><circle cx="1631" cy="752" r="5" fill="#9C6B3E" stroke="#2B1B12" stroke-width="1"/><rect x="1633" y="744" width="130" height="16" rx="8" fill="#6B4626" stroke="#2B1B12" stroke-width="1.5"/><circle cx="1756" cy="752" r="5" fill="#9C6B3E" stroke="#2B1B12" stroke-width="1"/><rect x="1090" y="726" width="81" height="16" rx="8" fill="#6B4626" stroke="#2B1B12" stroke-width="1.5"/><circle cx="1163" cy="734" r="5" fill="#9C6B3E" stroke="#2B1B12" stroke-width="1"/><rect x="1165" y="726" width="118" height="16" rx="8" fill="#6B4626" stroke="#2B1B12" stroke-width="1.5"/><circle cx="1274" cy="734" r="5" fill="#9C6B3E" stroke="#2B1B12" stroke-width="1"/><rect x="1276" y="726" width="133" height="16" rx="8" fill="#6B4626" stroke="#2B1B12" stroke-width="1.5"/><circle cx="1401" cy="734" r="5" fill="#9C6B3E" stroke="#2B1B12" stroke-width="1"/><rect x="1403" y="726" width="106" height="16" rx="8" fill="#6B4626" stroke="#2B1B12" stroke-width="1.5"/><circle cx="1501" cy="734" r="5" fill="#9C6B3E" stroke="#2B1B12" stroke-width="1"/><rect x="1503" y="726" width="83" height="16" rx="8" fill="#6B4626" stroke="#2B1B12" stroke-width="1.5"/><circle cx="1578" cy="734" r="5" fill="#9C6B3E" stroke="#2B1B12" stroke-width="1"/><rect x="1580" y="726" width="120" height="16" rx="8" fill="#6B4626" stroke="#2B1B12" stroke-width="1.5"/><circle cx="1692" cy="734" r="5" fill="#9C6B3E" stroke="#2B1B12" stroke-width="1"/><rect x="1100" y="708" width="103" height="16" rx="8" fill="#6B4626" stroke="#2B1B12" stroke-width="1.5"/><circle cx="1195" cy="716" r="5" fill="#9C6B3E" stroke="#2B1B12" stroke-width="1"/><rect x="1197" y="708" width="110" height="16" rx="8" fill="#6B4626" stroke="#2B1B12" stroke-width="1.5"/><circle cx="1299" cy="716" r="5" fill="#9C6B3E" stroke="#2B1B12" stroke-width="1"/><rect x="1301" y="708" width="138" height="16" rx="8" fill="#6B4626" stroke="#2B1B12" stroke-width="1.5"/><circle cx="1431" cy="716" r="5" fill="#9C6B3E" stroke="#2B1B12" stroke-width="1"/><rect x="1433" y="708" width="116" height="16" rx="8" fill="#6B4626" stroke="#2B1B12" stroke-width="1.5"/><circle cx="1541" cy="716" r="5" fill="#9C6B3E" stroke="#2B1B12" stroke-width="1"/><rect x="1543" y="708" width="122" height="16" rx="8" fill="#6B4626" stroke="#2B1B12" stroke-width="1.5"/><circle cx="1657" cy="716" r="5" fill="#9C6B3E" stroke="#2B1B12" stroke-width="1"/><rect x="1150" y="690" width="83" height="16" rx="8" fill="#6B4626" stroke="#2B1B12" stroke-width="1.5"/><circle cx="1225" cy="698" r="5" fill="#9C6B3E" stroke="#2B1B12" stroke-width="1"/><rect x="1227" y="690" width="91" height="16" rx="8" fill="#6B4626" stroke="#2B1B12" stroke-width="1.5"/><circle cx="1310" cy="698" r="5" fill="#9C6B3E" stroke="#2B1B12" stroke-width="1"/><rect x="1312" y="690" width="96" height="16" rx="8" fill="#6B4626" stroke="#2B1B12" stroke-width="1.5"/><circle cx="1400" cy="698" r="5" fill="#9C6B3E" stroke="#2B1B12" stroke-width="1"/><rect x="1402" y="690" width="80" height="16" rx="8" fill="#6B4626" stroke="#2B1B12" stroke-width="1.5"/><circle cx="1474" cy="698" r="5" fill="#9C6B3E" stroke="#2B1B12" stroke-width="1"/><rect x="1476" y="690" width="102" height="16" rx="8" fill="#6B4626" stroke="#2B1B12" stroke-width="1.5"/><circle cx="1570" cy="698" r="5" fill="#9C6B3E" stroke="#2B1B12" stroke-width="1"/><rect x="1160" y="672" width="100" height="16" rx="8" fill="#6B4626" stroke="#2B1B12" stroke-width="1.5"/><circle cx="1252" cy="680" r="5" fill="#9C6B3E" stroke="#2B1B12" stroke-width="1"/><rect x="1254" y="672" width="139" height="16" rx="8" fill="#6B4626" stroke="#2B1B12" stroke-width="1.5"/><circle cx="1385" cy="680" r="5" fill="#9C6B3E" stroke="#2B1B12" stroke-width="1"/><rect x="1387" y="672" width="99" height="16" rx="8" fill="#6B4626" stroke="#2B1B12" stroke-width="1.5"/><circle cx="1478" cy="680" r="5" fill="#9C6B3E" stroke="#2B1B12" stroke-width="1"/><rect x="1480" y="672" width="82" height="16" rx="8" fill="#6B4626" stroke="#2B1B12" stroke-width="1.5"/><circle cx="1554" cy="680" r="5" fill="#9C6B3E" stroke="#2B1B12" stroke-width="1"/><rect x="1210" y="654" width="133" height="16" rx="8" fill="#6B4626" stroke="#2B1B12" stroke-width="1.5"/><circle cx="1335" cy="662" r="5" fill="#9C6B3E" stroke="#2B1B12" stroke-width="1"/><rect x="1337" y="654" width="93" height="16" rx="8" fill="#6B4626" stroke="#2B1B12" stroke-width="1.5"/><circle cx="1422" cy="662" r="5" fill="#9C6B3E" stroke="#2B1B12" stroke-width="1"/><rect x="1424" y="654" width="91" height="16" rx="8" fill="#6B4626" stroke="#2B1B12" stroke-width="1.5"/><circle cx="1507" cy="662" r="5" fill="#9C6B3E" stroke="#2B1B12" stroke-width="1"/><rect x="1220" y="636" width="100" height="16" rx="8" fill="#6B4626" stroke="#2B1B12" stroke-width="1.5"/><circle cx="1312" cy="644" r="5" fill="#9C6B3E" stroke="#2B1B12" stroke-width="1"/><rect x="1314" y="636" width="85" height="16" rx="8" fill="#6B4626" stroke="#2B1B12" stroke-width="1.5"/><circle cx="1391" cy="644" r="5" fill="#9C6B3E" stroke="#2B1B12" stroke-width="1"/><rect x="1393" y="636" width="97" height="16" rx="8" fill="#6B4626" stroke="#2B1B12" stroke-width="1.5"/><circle cx="1482" cy="644" r="5" fill="#9C6B3E" stroke="#2B1B12" stroke-width="1"/><rect x="1270" y="618" width="119" height="16" rx="8" fill="#6B4626" stroke="#2B1B12" stroke-width="1.5"/><circle cx="1381" cy="626" r="5" fill="#9C6B3E" stroke="#2B1B12" stroke-width="1"/><rect x="1383" y="618" width="95" height="16" rx="8" fill="#6B4626" stroke="#2B1B12" stroke-width="1.5"/><circle cx="1470" cy="626" r="5" fill="#9C6B3E" stroke="#2B1B12" stroke-width="1"/><path d="M668 640 Q660 504 735 450 Q689 409 706 368 Q800 477 789 518 Q850 572 841 640 Z" fill="#D9381E" stroke="#2B1B12" stroke-width="1.6" stroke-linejoin="round" stroke-linecap="round" /><path d="M563 640 Q554 473 657 406 Q653 356 670 305 Q728 439 683 489 Q743 556 734 640 Z" fill="#D9381E" stroke="#2B1B12" stroke-width="1.6" stroke-linejoin="round" stroke-linecap="round" /><path d="M222 640 Q207 414 336 324 Q260 256 290 189 Q445 369 425 437 Q527 527 513 640 Z" fill="#D9381E" stroke="#2B1B12" stroke-width="1.6" stroke-linejoin="round" stroke-linecap="round" /><path d="M699 640 Q687 432 842 349 Q851 287 875 225 Q944 391 868 453 Q953 536 941 640 Z" fill="#D9381E" stroke="#2B1B12" stroke-width="1.6" stroke-linejoin="round" stroke-linecap="round" /><path d="M633 640 Q624 462 732 391 Q727 338 745 285 Q806 427 760 480 Q823 551 814 640 Z" fill="#D9381E" stroke="#2B1B12" stroke-width="1.6" stroke-linejoin="round" stroke-linecap="round" /><path d="M271 640 Q259 428 402 343 Q378 280 404 216 Q506 386 453 449 Q544 534 531 640 Z" fill="#D9381E" stroke="#2B1B12" stroke-width="1.6" stroke-linejoin="round" stroke-linecap="round" /><path d="M449 640 Q437 441 593 361 Q620 302 642 242 Q691 401 605 461 Q683 540 672 640 Z" fill="#D9381E" stroke="#2B1B12" stroke-width="1.6" stroke-linejoin="round" stroke-linecap="round" /><path d="M624 640 Q612 455 706 381 Q628 325 652 269 Q791 418 789 473 Q871 547 859 640 Z" fill="#D9381E" stroke="#2B1B12" stroke-width="1.6" stroke-linejoin="round" stroke-linecap="round" /><path d="M577 640 Q564 431 743 347 Q774 285 800 222 Q854 389 755 452 Q845 535 832 640 Z" fill="#D9381E" stroke="#2B1B12" stroke-width="1.6" stroke-linejoin="round" stroke-linecap="round" /><path d="M619 640 Q613 505 687 451 Q686 410 699 369 Q738 478 704 518 Q747 572 741 640 Z" fill="#D9381E" stroke="#2B1B12" stroke-width="1.6" stroke-linejoin="round" stroke-linecap="round" /><path d="M767 640 Q758 475 828 408 Q765 359 783 309 Q893 441 894 491 Q957 557 948 640 Z" fill="#D9381E" stroke="#2B1B12" stroke-width="1.6" stroke-linejoin="round" stroke-linecap="round" /><path d="M240 640 Q231 458 313 386 Q270 331 288 277 Q382 422 367 477 Q430 549 421 640 Z" fill="#D9381E" stroke="#2B1B12" stroke-width="1.6" stroke-linejoin="round" stroke-linecap="round" /><path d="M487 640 Q478 506 597 453 Q611 413 629 372 Q674 479 611 520 Q674 573 665 640 Z" fill="#D9381E" stroke="#2B1B12" stroke-width="1.6" stroke-linejoin="round" stroke-linecap="round" /><path d="M259 640 Q248 459 370 387 Q344 332 367 278 Q459 423 416 477 Q495 550 483 640 Z" fill="#D9381E" stroke="#2B1B12" stroke-width="1.6" stroke-linejoin="round" stroke-linecap="round" /><path d="M667 640 Q656 426 795 340 Q807 276 828 212 Q886 383 816 447 Q890 533 879 640 Z" fill="#D9381E" stroke="#2B1B12" stroke-width="1.6" stroke-linejoin="round" stroke-linecap="round" /><path d="M343 640 Q332 446 476 369 Q495 311 516 252 Q568 407 492 466 Q567 543 556 640 Z" fill="#D9381E" stroke="#2B1B12" stroke-width="1.6" stroke-linejoin="round" stroke-linecap="round" /><path d="M251 640 Q239 419 323 331 Q240 265 263 199 Q403 375 408 441 Q487 530 475 640 Z" fill="#D9381E" stroke="#2B1B12" stroke-width="1.6" stroke-linejoin="round" stroke-linecap="round" /><path d="M589 640 Q580 493 664 434 Q632 390 650 346 Q731 464 709 508 Q769 566 760 640 Z" fill="#D9381E" stroke="#2B1B12" stroke-width="1.6" stroke-linejoin="round" stroke-linecap="round" /><path d="M601 640 Q592 497 664 440 Q616 397 633 355 Q726 469 718 512 Q777 569 769 640 Z" fill="#F7A21B" /><path d="M504 640 Q496 513 570 462 Q522 424 539 385 Q633 487 624 525 Q684 576 676 640 Z" fill="#F7A21B" /><path d="M364 640 Q356 512 431 461 Q399 423 415 385 Q490 487 473 525 Q528 576 520 640 Z" fill="#F7A21B" /><path d="M480 640 Q470 492 584 432 Q568 388 588 344 Q665 462 621 507 Q692 566 681 640 Z" fill="#F7A21B" /><path d="M441 640 Q435 543 486 504 Q463 474 474 445 Q527 523 516 552 Q554 591 548 640 Z" fill="#F7A21B" /><path d="M275 640 Q267 511 388 460 Q409 421 426 382 Q465 485 398 524 Q459 576 450 640 Z" fill="#F7A21B" /><path d="M431 640 Q420 481 510 417 Q448 369 469 321 Q587 449 579 497 Q653 560 642 640 Z" fill="#F7A21B" /><path d="M297 640 Q289 493 362 435 Q335 390 350 346 Q419 464 400 508 Q452 567 444 640 Z" fill="#F7A21B" /><path d="M588 640 Q581 502 636 447 Q590 405 604 364 Q687 474 686 516 Q735 571 728 640 Z" fill="#F7A21B" /><path d="M441 640 Q433 512 519 461 Q494 422 511 384 Q584 486 558 525 Q616 576 608 640 Z" fill="#F7A21B" /><path d="M311 640 Q302 478 403 413 Q374 365 394 316 Q480 446 448 494 Q517 559 507 640 Z" fill="#F7A21B" /><path d="M662 640 Q656 518 709 469 Q668 432 681 396 Q756 493 753 530 Q798 579 792 640 Z" fill="#F7A21B" /><path d="M445 640 Q439 525 501 479 Q482 444 494 409 Q548 502 530 536 Q572 582 566 640 Z" fill="#F7A21B" /><path d="M800 640 Q795 534 856 492 Q862 460 872 429 Q896 513 865 545 Q898 587 893 640 Z" fill="#F7A21B" /><path d="M411 640 Q405 544 476 506 Q487 477 497 448 Q520 525 482 554 Q518 592 513 640 Z" fill="#F7A21B" /><path d="M263 640 Q253 480 385 416 Q400 368 419 320 Q471 448 403 496 Q472 560 462 640 Z" fill="#F7A21B" /><path d="M420 640 Q415 545 482 507 Q479 479 490 450 Q529 526 500 555 Q540 593 534 640 Z" fill="#F7A21B" /><path d="M314 640 Q305 477 391 411 Q355 362 373 313 Q460 444 439 493 Q501 558 492 640 Z" fill="#F7A21B" /><path d="M706 640 Q701 553 737 518 Q702 492 712 465 Q770 535 772 561 Q805 596 800 640 Z" fill="#FFF1B8" /><path d="M701 640 Q696 569 748 541 Q741 520 750 499 Q785 555 765 577 Q797 605 792 640 Z" fill="#FFF1B8" /><path d="M396 640 Q393 583 432 561 Q421 544 429 527 Q461 572 449 589 Q475 612 472 640 Z" fill="#FFF1B8" /><path d="M626 640 Q622 581 664 557 Q656 539 663 522 Q695 569 680 587 Q707 610 703 640 Z" fill="#FFF1B8" /><path d="M794 640 Q790 563 828 532 Q817 509 824 486 Q857 548 845 571 Q871 601 868 640 Z" fill="#FFF1B8" /><path d="M438 640 Q434 576 482 550 Q480 531 488 512 Q514 563 494 582 Q521 608 517 640 Z" fill="#FFF1B8" /><path d="M512 640 Q509 576 552 551 Q551 532 558 513 Q581 564 562 583 Q586 608 583 640 Z" fill="#FFF1B8" /><path d="M350 640 Q346 559 387 526 Q380 502 387 478 Q417 543 402 567 Q428 599 424 640 Z" fill="#FFF1B8" /><path d="M732 640 Q728 563 769 532 Q753 509 762 486 Q802 548 792 571 Q821 601 817 640 Z" fill="#FFF1B8" /><path d="M704 640 Q700 568 738 540 Q719 518 727 497 Q769 554 762 575 Q790 604 786 640 Z" fill="#FFF1B8" /><path d="M378 640 Q374 563 414 532 Q400 509 408 485 Q445 547 434 570 Q462 601 458 640 Z" fill="#FFF1B8" /><path d="M746 640 Q743 578 782 553 Q791 535 796 516 Q807 566 784 584 Q804 609 801 640 Z" fill="#FFF1B8" /><path d="M492 640 Q488 554 527 520 Q506 495 515 469 Q558 537 551 563 Q581 597 576 640 Z" fill="#FFF1B8" /><path d="M698 640 Q694 565 737 535 Q722 513 731 490 Q771 550 758 573 Q789 603 784 640 Z" fill="#FFF1B8" /><path d="M657 640 Q652 564 715 533 Q722 511 731 488 Q756 549 724 571 Q757 602 753 640 Z" fill="#FFF1B8" /><path d="M323 640 Q318 548 377 511 Q375 483 385 456 Q418 529 391 557 Q426 594 421 640 Z" fill="#FFF1B8" /><path d="M519 640 Q515 573 574 547 Q585 527 593 507 Q611 560 579 580 Q608 607 604 640 Z" fill="#FFF1B8" /><path d="M347 640 Q342 568 400 540 Q404 518 413 497 Q438 554 409 576 Q440 604 436 640 Z" fill="#FFF1B8" /><path d="M1521 640 Q1513 463 1633 392 Q1662 339 1678 286 Q1705 427 1635 481 Q1691 551 1683 640 Z" fill="#D9381E" stroke="#2B1B12" stroke-width="1.6" stroke-linejoin="round" stroke-linecap="round" /><path d="M1480 640 Q1470 459 1576 386 Q1551 332 1571 278 Q1655 423 1620 477 Q1690 549 1680 640 Z" fill="#D9381E" stroke="#2B1B12" stroke-width="1.6" stroke-linejoin="round" stroke-linecap="round" /><path d="M1427 640 Q1420 490 1527 430 Q1555 386 1569 341 Q1591 460 1527 505 Q1577 565 1570 640 Z" fill="#D9381E" stroke="#2B1B12" stroke-width="1.6" stroke-linejoin="round" stroke-linecap="round" /><path d="M992 640 Q979 428 1150 343 Q1169 280 1194 216 Q1261 386 1173 449 Q1263 534 1250 640 Z" fill="#D9381E" stroke="#2B1B12" stroke-width="1.6" stroke-linejoin="round" stroke-linecap="round" /><path d="M1476 640 Q1468 505 1534 451 Q1477 410 1494 369 Q1595 478 1595 518 Q1654 572 1646 640 Z" fill="#D9381E" stroke="#2B1B12" stroke-width="1.6" stroke-linejoin="round" stroke-linecap="round" /><path d="M1047 640 Q1039 455 1146 380 Q1154 325 1170 269 Q1217 417 1164 473 Q1222 547 1214 640 Z" fill="#D9381E" stroke="#2B1B12" stroke-width="1.6" stroke-linejoin="round" stroke-linecap="round" /><path d="M1491 640 Q1480 449 1594 372 Q1565 315 1587 257 Q1680 410 1642 468 Q1718 544 1707 640 Z" fill="#D9381E" stroke="#2B1B12" stroke-width="1.6" stroke-linejoin="round" stroke-linecap="round" /><path d="M1418 640 Q1411 503 1512 448 Q1534 407 1548 366 Q1574 476 1516 517 Q1565 572 1558 640 Z" fill="#D9381E" stroke="#2B1B12" stroke-width="1.6" stroke-linejoin="round" stroke-linecap="round" /><path d="M1071 640 Q1061 486 1137 425 Q1071 379 1091 333 Q1206 456 1206 502 Q1274 563 1264 640 Z" fill="#D9381E" stroke="#2B1B12" stroke-width="1.6" stroke-linejoin="round" stroke-linecap="round" /><path d="M1245 640 Q1233 410 1344 319 Q1296 250 1319 181 Q1433 364 1408 433 Q1489 525 1477 640 Z" fill="#D9381E" stroke="#2B1B12" stroke-width="1.6" stroke-linejoin="round" stroke-linecap="round" /><path d="M1444 640 Q1436 488 1533 428 Q1520 382 1537 337 Q1602 458 1564 504 Q1624 564 1616 640 Z" fill="#D9381E" stroke="#2B1B12" stroke-width="1.6" stroke-linejoin="round" stroke-linecap="round" /><path d="M976 640 Q966 471 1046 403 Q981 352 1001 302 Q1119 437 1117 488 Q1187 555 1177 640 Z" fill="#D9381E" stroke="#2B1B12" stroke-width="1.6" stroke-linejoin="round" stroke-linecap="round" /><path d="M1039 640 Q1026 422 1132 335 Q1051 269 1077 204 Q1227 378 1221 444 Q1312 531 1299 640 Z" fill="#D9381E" stroke="#2B1B12" stroke-width="1.6" stroke-linejoin="round" stroke-linecap="round" /><path d="M1097 640 Q1088 470 1187 401 Q1168 350 1186 299 Q1259 435 1224 487 Q1287 555 1278 640 Z" fill="#D9381E" stroke="#2B1B12" stroke-width="1.6" stroke-linejoin="round" stroke-linecap="round" /><path d="M1344 640 Q1333 439 1441 359 Q1408 299 1429 238 Q1524 399 1492 459 Q1566 540 1555 640 Z" fill="#D9381E" stroke="#2B1B12" stroke-width="1.6" stroke-linejoin="round" stroke-linecap="round" /><path d="M963 640 Q953 483 1037 421 Q976 374 996 327 Q1110 452 1104 499 Q1175 562 1165 640 Z" fill="#D9381E" stroke="#2B1B12" stroke-width="1.6" stroke-linejoin="round" stroke-linecap="round" /><path d="M1246 640 Q1237 493 1320 434 Q1274 390 1293 346 Q1389 463 1374 507 Q1439 566 1429 640 Z" fill="#D9381E" stroke="#2B1B12" stroke-width="1.6" stroke-linejoin="round" stroke-linecap="round" /><path d="M1220 640 Q1210 486 1296 424 Q1240 378 1260 332 Q1371 455 1361 501 Q1431 563 1421 640 Z" fill="#D9381E" stroke="#2B1B12" stroke-width="1.6" stroke-linejoin="round" stroke-linecap="round" /><path d="M1320 640 Q1311 503 1408 449 Q1389 408 1407 367 Q1480 476 1445 517 Q1508 572 1499 640 Z" fill="#F7A21B" /><path d="M1514 640 Q1509 545 1586 507 Q1599 478 1610 449 Q1634 526 1592 554 Q1631 592 1625 640 Z" fill="#F7A21B" /><path d="M1036 640 Q1031 547 1087 510 Q1072 482 1083 454 Q1130 529 1112 556 Q1150 594 1145 640 Z" fill="#F7A21B" /><path d="M1400 640 Q1394 535 1466 493 Q1468 462 1480 430 Q1515 514 1480 546 Q1521 588 1515 640 Z" fill="#F7A21B" /><path d="M1190 640 Q1186 540 1223 501 Q1194 471 1203 441 Q1256 521 1254 550 Q1286 590 1282 640 Z" fill="#F7A21B" /><path d="M1088 640 Q1080 500 1165 444 Q1146 403 1162 361 Q1228 472 1198 514 Q1254 570 1246 640 Z" fill="#F7A21B" /><path d="M1142 640 Q1132 495 1263 437 Q1286 393 1305 350 Q1344 466 1272 509 Q1337 567 1328 640 Z" fill="#F7A21B" /><path d="M1262 640 Q1258 541 1291 501 Q1257 471 1266 442 Q1323 521 1326 551 Q1358 590 1353 640 Z" fill="#F7A21B" /><path d="M1205 640 Q1196 483 1312 420 Q1318 373 1336 326 Q1388 452 1331 499 Q1395 561 1386 640 Z" fill="#F7A21B" /><path d="M1197 640 Q1189 492 1291 432 Q1303 388 1318 343 Q1356 462 1303 506 Q1357 566 1349 640 Z" fill="#F7A21B" /><path d="M1039 640 Q1032 496 1112 439 Q1101 396 1115 353 Q1168 468 1137 511 Q1186 568 1179 640 Z" fill="#F7A21B" /><path d="M1239 640 Q1232 525 1309 479 Q1293 444 1307 410 Q1365 502 1338 536 Q1388 582 1381 640 Z" fill="#F7A21B" /><path d="M1349 640 Q1343 530 1410 487 Q1390 454 1403 421 Q1460 509 1440 541 Q1485 585 1478 640 Z" fill="#F7A21B" /><path d="M1191 640 Q1183 514 1248 464 Q1199 426 1215 389 Q1306 489 1302 527 Q1358 577 1350 640 Z" fill="#F7A21B" /><path d="M1113 640 Q1108 544 1164 506 Q1145 477 1156 448 Q1207 525 1192 554 Q1231 592 1225 640 Z" fill="#F7A21B" /><path d="M1175 640 Q1167 478 1264 413 Q1273 364 1288 316 Q1326 445 1277 494 Q1328 559 1321 640 Z" fill="#F7A21B" /><path d="M1364 640 Q1356 480 1460 416 Q1465 368 1482 320 Q1529 448 1479 496 Q1536 560 1528 640 Z" fill="#F7A21B" /><path d="M1293 640 Q1283 489 1367 428 Q1308 383 1328 338 Q1441 459 1434 504 Q1504 564 1494 640 Z" fill="#F7A21B" /><path d="M1487 640 Q1484 582 1522 559 Q1514 542 1521 524 Q1550 571 1537 588 Q1561 611 1558 640 Z" fill="#FFF1B8" /><path d="M1437 640 Q1431 553 1506 518 Q1511 491 1522 465 Q1555 535 1518 561 Q1558 596 1552 640 Z" fill="#FFF1B8" /><path d="M1101 640 Q1098 565 1147 535 Q1160 513 1167 491 Q1177 550 1148 573 Q1171 603 1167 640 Z" fill="#FFF1B8" /><path d="M1190 640 Q1186 557 1221 523 Q1200 499 1208 474 Q1251 540 1246 565 Q1273 598 1269 640 Z" fill="#FFF1B8" /><path d="M1496 640 Q1492 567 1545 538 Q1540 516 1549 494 Q1583 552 1561 574 Q1593 603 1588 640 Z" fill="#FFF1B8" /><path d="M1313 640 Q1310 570 1344 542 Q1333 521 1340 500 Q1370 556 1360 577 Q1384 605 1380 640 Z" fill="#FFF1B8" /><path d="M1381 640 Q1377 566 1414 536 Q1390 514 1399 492 Q1445 551 1441 573 Q1470 603 1466 640 Z" fill="#FFF1B8" /><path d="M1272 640 Q1270 582 1302 559 Q1301 542 1306 525 Q1324 571 1309 588 Q1328 611 1325 640 Z" fill="#FFF1B8" /><path d="M1128 640 Q1123 569 1190 540 Q1201 519 1210 497 Q1232 554 1196 576 Q1230 604 1225 640 Z" fill="#FFF1B8" /><path d="M1125 640 Q1121 581 1166 558 Q1174 540 1180 522 Q1194 569 1170 587 Q1193 611 1189 640 Z" fill="#FFF1B8" /><path d="M1144 640 Q1139 563 1200 533 Q1202 510 1211 487 Q1240 548 1211 571 Q1244 602 1239 640 Z" fill="#FFF1B8" /><path d="M1463 640 Q1460 574 1491 548 Q1475 528 1481 508 Q1516 561 1510 581 Q1533 607 1530 640 Z" fill="#FFF1B8" /><path d="M1167 640 Q1164 576 1194 550 Q1175 530 1182 511 Q1220 563 1216 582 Q1241 608 1237 640 Z" fill="#FFF1B8" /><path d="M1149 640 Q1145 575 1184 548 Q1163 529 1172 509 Q1216 562 1209 581 Q1239 607 1235 640 Z" fill="#FFF1B8" /><path d="M1064 640 Q1061 576 1097 550 Q1092 531 1098 512 Q1123 563 1109 582 Q1131 608 1128 640 Z" fill="#FFF1B8" /><path d="M1392 640 Q1389 582 1413 559 Q1391 542 1397 525 Q1436 571 1436 588 Q1459 611 1456 640 Z" fill="#FFF1B8" /><path d="M1017 640 Q1013 548 1061 512 Q1049 484 1058 457 Q1096 530 1081 558 Q1112 594 1108 640 Z" fill="#FFF1B8" /><path d="M1224 640 Q1220 549 1253 512 Q1219 485 1228 458 Q1285 531 1287 558 Q1319 594 1315 640 Z" fill="#FFF1B8" /><path d="M0 760 L1920 760 L1920 864 L0 864 Z" fill="#9C6B3E" stroke="#2B1B12" stroke-width="2" stroke-linejoin="round" stroke-linecap="round" /></svg>
