<svg xmlns="http://www.w3.org/2000/svg" viewBox="-40 -30 320 450" width="320" height="450"><defs><clipPath id="robe-clip-siavosh_white"><path d="M90 104 Q82 150 96 190 Q86 280 76 350 Q122 362 168 348 Q152 270 146 190 Q158 140 152 104 Q122 94 90 104 Z"/></clipPath></defs><path d="M94 108 Q80 150 82 196 Q84 214 94 218 Q100 206 100 192 Q100 150 106 120 Z" fill="#FBF7EC" stroke="#2B1B12" stroke-width="1.6" stroke-linejoin="round" stroke-linecap="round" /><circle cx="90" cy="218" r="7" fill="#F3D9BC" stroke="#2B1B12" stroke-width="1.4"/><path d="M98 340 L100 400 L120 401 Q130 400 133 394 Q136 404 128 409 L96 409 Q92 404 94 398 L92 340 Z" fill="#6B4626" stroke="#2B1B12" stroke-width="1.6" stroke-linejoin="round" stroke-linecap="round" /><path d="M128 340 L130 400 L150 401 Q160 400 163 394 Q166 404 158 409 L126 409 Q122 404 124 398 L120 340 Z" fill="#6B4626" stroke="#2B1B12" stroke-width="1.6" stroke-linejoin="round" stroke-linecap="round" /><path d="M124 392 L134 392 M96 392 L106 392" stroke="#C99A2E" stroke-width="2"/><path d="M90 104 Q82 150 96 190 Q86 280 76 350 Q122 362 168 348 Q152 270 146 190 Q158 140 152 104 Q122 94 90 104 Z" fill="#FBF7EC" stroke="#2B1B12" stroke-width="1.6" stroke-linejoin="round" stroke-linecap="round" /><g clip-path="url(#robe-clip-siavosh_white)"><circle cx="92" cy="124" r="2.6" fill="#E6D3A8"/><circle cx="114" cy="124" r="2.6" fill="#E6D3A8"/><circle cx="136" cy="124" r="2.6" fill="#E6D3A8"/><circle cx="158" cy="124" r="2.6" fill="#E6D3A8"/><circle cx="103" cy="146" r="2.6" fill="#E6D3A8"/><circle cx="125" cy="146" r="2.6" fill="#E6D3A8"/><circle cx="147" cy="146" r="2.6" fill="#E6D3A8"/><circle cx="92" cy="168" r="2.6" fill="#E6D3A8"/><circle cx="114" cy="168" r="2.6" fill="#E6D3A8"/><circle cx="136" cy="168" r="2.6" fill="#E6D3A8"/><circle cx="158" cy="168" r="2.6" fill="#E6D3A8"/><circle cx="103" cy="190" r="2.6" fill="#E6D3A8"/><circle cx="125" cy="190" r="2.6" fill="#E6D3A8"/><circle cx="147" cy="190" r="2.6" fill="#E6D3A8"/><circle cx="92" cy="212" r="2.6" fill="#E6D3A8"/><circle cx="114" cy="212" r="2.6" fill="#E6D3A8"/><circle cx="136" cy="212" r="2.6" fill="#E6D3A8"/><circle cx="158" cy="212" r="2.6" fill="#E6D3A8"/><circle cx="103" cy="234" r="2.6" fill="#E6D3A8"/><circle cx="125" cy="234" r="2.6" fill="#E6D3A8"/><circle cx="147" cy="234" r="2.6" fill="#E6D3A8"/><circle cx="92" cy="256" r="2.6" fill="#E6D3A8"/><circle cx="114" cy="256" r="2.6" fill="#E6D3A8"/><circle cx="136" cy="256" r="2.6" fill="#E6D3A8"/><circle cx="158" cy="256" r="2.6" fill="#E6D3A8"/><circle cx="103" cy="278" r="2.6" fill="#E6D3A8"/><circle cx="125" cy="278" r="2.6" fill="#E6D3A8"/><circle cx="147" cy="278" r="2.6" fill="#E6D3A8"/><circle cx="92" cy="300" r="2.6" fill="#E6D3A8"/><circle cx="114" cy="300" r="2.6" fill="#E6D3A8"/><circle cx="136" cy="300" r="2.6" fill="#E6D3A8"/><circle cx="158" cy="300" r="2.6" fill="#E6D3A8"/><circle cx="103" cy="322" r="2.6" fill="#E6D3A8"/><circle cx="125" cy="322" r="2.6" fill="#E6D3A8"/><circle cx="147" cy="322" r="2.6" fill="#E6D3A8"/></g><path d="M132 344 Q150 342 168 348 Q150 356 132 354 Z" fill="#F4E8CC" stroke="#2B1B12" stroke-width="1.6" stroke-linejoin="round" stroke-linecap="round" /><path d="M124 100 Q146 130 140 190 Q138 270 134 354" fill="none" stroke="#C99A2E" stroke-width="4"/><path d="M124 100 Q146 130 140 190 Q138 270 134 354" fill="none" stroke="#2B1B12" stroke-width="1"/><path d="M108 100 Q122 112 136 100 Q130 94 122 96 Q114 94 108 100 Z" fill="#C99A2E" stroke="#2B1B12" stroke-width="1.6" stroke-linejoin="round" stroke-linecap="round" /><path d="M94 182 Q122 192 148 182 L148 196 Q122 206 94 196 Z" fill="#C99A2E" stroke="#2B1B12" stroke-width="1.6" stroke-linejoin="round" stroke-linecap="round" /><path d="M136 196 Q140 230 132 262 L142 262 Q150 230 146 196 Z" fill="#C99A2E" stroke="#2B1B12" stroke-width="1.6" stroke-linejoin="round" stroke-linecap="round" /><circle cx="140" cy="191" r="5" fill="#C99A2E" stroke="#2B1B12" stroke-width="1.2"/><path d="M100 66 Q92 96 100 116 Q110 118 112 104 Q106 88 110 70 Z" fill="#1C120D" stroke="#2B1B12" stroke-width="1.6" stroke-linejoin="round" stroke-linecap="round" /><rect x="114" y="82" width="15" height="22" fill="#E2BC96" stroke="#2B1B12" stroke-width="1.4"/><ellipse cx="124" cy="64" rx="20" ry="24" fill="#F3D9BC" stroke="#2B1B12" stroke-width="1.6"/><path d="M106 58 Q104 44 118 40 Q132 38 142 50 Q130 46 120 50 Q112 54 110 66 Z" fill="#1C120D"/><ellipse cx="112" cy="66" rx="4" ry="6" fill="#E2BC96" stroke="#2B1B12" stroke-width="1.2"/><path d="M126 60 Q131 56 137 60 Q131 63 126 60 Z" fill="#FBF7EC" stroke="#2B1B12" stroke-width="1.2"/><circle cx="132.5" cy="59.8" r="2" fill="#2B1B12"/><path d="M124 53 Q131 48 139 52" fill="none" stroke="#2B1B12" stroke-width="1.6"/><path d="M142 58 L146 70 L141 72" fill="none" stroke="#2B1B12" stroke-width="1.3"/><path d="M134 79 Q138 81 141 79" fill="none" stroke="#C2412D" stroke-width="2.2" stroke-linecap="round"/><path d="M100 52 Q98 30 122 26 Q146 28 146 50 Q124 42 100 52 Z" fill="#FBF7EC" stroke="#2B1B12" stroke-width="1.6" stroke-linejoin="round" stroke-linecap="round" /><path d="M104 42 Q122 34 144 40" fill="none" stroke="#E6D3A8" stroke-width="1.4"/><path d="M104 34 L106 14 L114 26 L122 6 L130 26 L138 14 L140 34 Q122 28 104 34 Z" fill="#C99A2E" stroke="#2B1B12" stroke-width="1.6" stroke-linejoin="round" stroke-linecap="round" /><circle cx="122" cy="18" r="2.6" fill="#C2412D"/><circle cx="110" cy="28" r="2.6" fill="#C2412D"/><circle cx="134" cy="28" r="2.6" fill="#C2412D"/><path d="M140 30 Q156 22 162 34 Q154 30 146 36" fill="none" stroke="#C2412D" stroke-width="3"/><path d="M146 106 Q166 140 162 176 Q160 190 150 192 Q144 184 148 170 Q150 140 138 116 Z" fill="#FBF7EC" stroke="#2B1B12" stroke-width="1.6" stroke-linejoin="round" stroke-linecap="round" /><circle cx="150" cy="186" r="0" /><circle cx="152" cy="194" r="7.5" fill="#F3D9BC" stroke="#2B1B12" stroke-width="1.4"/></svg>
